<?xml version="1.0"?>
<svg xmlns="http://www.w3.org/2000/svg" height="512px" viewBox="0 -2 512.00036 512" width="512px" class=""><g><path d="m496.085938 96.539062 12.414062-10.691406c4.433594-3.816406 4.695312-10.816406.558594-14.953125l-67.949219-67.949219c-4.101563-4.101562-11.019531-3.894531-14.867187.457032l-10.929688 12.367187-12.429688-12.429687c-9.3125-9.3125-23.75 5.125-14.4375 14.4375l13.316407 13.316406-6.75 7.640625-13.761719-13.761719c-9.308594-9.3125-23.746094 5.121094-14.4375 14.433594l14.652344 14.652344-6.753906 7.636718-15.09375-15.09375c-9.3125-9.304687-23.746094 5.128907-14.433594 14.4375l15.980468 15.984376-11.761718 13.304687c-5.246094 5.933594-1.480469 12.675781 3.429687 16.980469l-107.667969 107.667968c-18.570312-9.046874-39.824218-12.492187-60.402343-9.695312-22.929688 3.117188-43.71875 13.433594-60.117188 29.832031-12.0625 12.078125-26.433593 20.484375-43.203125 24.171875-19.671875 4.332032-37.359375 13.90625-51.140625 27.6875-45.222656 45.222656-39.121093 124.902344 13.59375 177.621094 25.316407 25.3125 57.554688 40.78125 90.78125 43.546875 3.578125.300781 7.117188.449219 10.621094.449219 29.65625-.003906 56.421875-10.601563 76.21875-30.402344 13.78125-13.78125 23.355469-31.464844 27.6875-51.144531 4.082031-18.554688 13.660156-31.960938 26.410156-45.507813 28.875-30.664062 36.449219-76.214844 19.488281-114.683594l108.960938-108.316406c4.15625 4.746094 10.820312 7.9375 16.453125 3.089844l13.566406-11.6875 16.125 16.121094c9.125 9.125 23.75-5.121094 14.433594-14.4375l-15.042969-15.042969 7.730469-6.660156 14.507813 14.511719c9.128906 9.125 23.753906-5.121094 14.4375-14.4375l-13.433594-13.433594 7.734375-6.65625 12.894531 12.894531c9.128906 9.125 23.753906-5.121094 14.4375-14.4375zm-235.335938 271c-15.335938 16.304688-26.585938 32.847657-31.488281 55.117188-3.488281 15.863281-11.160157 30.074219-22.183594 41.097656-17.816406 17.816406-42.929687 26.351563-70.710937 24.042969-28.417969-2.367187-56.128907-15.734375-78.035157-37.640625-44.757812-44.757812-50.855469-111.484375-13.59375-148.746094 11.023438-11.023437 25.230469-18.695312 41.09375-22.183594 12.554688-2.765624 24.925781-8.234374 35.777344-15.578124 11.050781-7.480469 19.792969-17.753907 30.945313-25.023438 22.648437-14.773438 51.882812-17.902344 77.117187-8.15625l-36.355469 36.351562c-16.648437-2.15625-34.089844 3.132813-46.855468 15.894532-21.835938 21.835937-21.835938 57.363281 0 79.199218 10.578124 10.578126 24.640624 16.402344 39.601562 16.402344 14.957031 0 29.023438-5.824218 39.597656-16.402344 11.589844-11.589843 17.027344-27.039062 16.3125-42.25l37.324219-37.097656c9.726563 29.292969 2.875 62.226563-18.546875 84.972656-.96875 1.03125 0 0 0 0zm-49.527344-70.386718c13.875 13.875 13.875 36.449218 0 50.328125-6.71875 6.71875-15.65625 10.421875-25.160156 10.421875-9.507812 0-18.445312-3.703125-25.164062-10.421875-13.875-13.875-13.875-36.453125 0-50.328125 6.9375-6.9375 16.050781-10.40625 25.164062-10.40625 9.109375 0 18.222656 3.46875 25.160156 10.40625zm24.71875-.277344c-2.597656-5.105469-6.019531-9.894531-10.28125-14.160156-3.339844-3.339844-7.003906-6.160156-10.882812-8.476563l152.492187-152.496093 22.355469 22.359374zm135.113282-200.21875 63.296874-71.597656 19.078126 19.078125-16.320313 16.320312c-9.3125 9.3125 5.125 23.75 14.4375 14.4375l16.320313-16.320312 18.976562 18.980469-72.472656 62.417968zm0 0" data-original="#000000" class="active-path" data-old_color="#000000" fill="#2A4B8B"/><path d="m93.035156 365.71875c-9.3125-9.308594-23.75 5.128906-14.4375 14.4375l53.246094 53.25c9.128906 9.125 23.753906-5.121094 14.4375-14.4375zm0 0" data-original="#000000" class="active-path" data-old_color="#000000" fill="#2A4B8B"/><path d="m415.730469 85.675781c-11.707031 0-13.753907 17.421875-2.300781 20.070313 5.136718 1.1875 10.429687-1.722656 12.023437-6.796875 2.027344-6.460938-2.921875-13.273438-9.722656-13.273438zm0 0" data-original="#000000" class="active-path" data-old_color="#000000" fill="#2A4B8B"/></g> </svg>
