<?xml version="1.0"?>
<svg xmlns="http://www.w3.org/2000/svg" height="512px" viewBox="0 0 512.00033 512" width="512px"><g><path d="m130.355469 368.964844c-22.257813 0-40.367188 18.109375-40.367188 40.367187 0 22.257813 18.109375 40.367188 40.367188 40.367188 22.257812 0 40.367187-18.109375 40.367187-40.367188 0-22.257812-18.109375-40.367187-40.367187-40.367187zm0 60.734375c-11.230469 0-20.367188-9.136719-20.367188-20.367188s9.136719-20.367187 20.367188-20.367187 20.367187 9.136718 20.367187 20.367187-9.136718 20.367188-20.367187 20.367188zm0 0" data-original="#000000" class="active-path" data-old_color="#000000" fill="#2A4B8B"/><path d="m177.636719 163.953125c-19.953125 0-36.1875 16.234375-36.1875 36.191406 0 19.953125 16.234375 36.1875 36.1875 36.1875s36.1875-16.234375 36.1875-36.1875c0-19.957031-16.234375-36.191406-36.1875-36.191406zm0 52.378906c-8.925781 0-16.191407-7.261719-16.191407-16.1875 0-8.929687 7.265626-16.191406 16.191407-16.191406s16.191406 7.261719 16.191406 16.191406c0 8.925781-7.265625 16.1875-16.191406 16.1875zm0 0" data-original="#000000" class="active-path" data-old_color="#000000" fill="#2A4B8B"/><path d="m139.929688 325.125c9.507812-9.507812 14.742187-22.148438 14.742187-35.597656 0-13.445313-5.234375-26.085938-14.742187-35.59375-9.507813-9.507813-22.152344-14.746094-35.597657-14.746094-13.445312 0-26.085937 5.238281-35.59375 14.746094-9.507812 9.507812-14.746093 22.148437-14.746093 35.59375 0 13.449218 5.238281 26.089844 14.746093 35.597656 9.507813 9.507812 22.148438 14.746094 35.59375 14.746094 13.449219 0 26.089844-5.238282 35.597657-14.746094zm-65.9375-35.597656c0-8.101563 3.15625-15.722656 8.886718-21.453125 5.730469-5.730469 13.351563-8.886719 21.453125-8.886719 8.105469 0 15.726563 3.15625 21.457031 8.886719 5.730469 5.730469 8.886719 13.351562 8.886719 21.453125 0 8.105468-3.15625 15.726562-8.886719 21.457031-5.730468 5.730469-13.351562 8.886719-21.457031 8.886719-8.101562 0-15.722656-3.15625-21.453125-8.886719-5.730468-5.730469-8.886718-13.351563-8.886718-21.457031zm0 0" data-original="#000000" class="active-path" data-old_color="#000000" fill="#2A4B8B"/><path d="m286.320312 205.757812c-13.445312 0-26.089843 5.238282-35.597656 14.746094-9.507812 9.507813-14.742187 22.148438-14.742187 35.59375 0 13.445313 5.234375 26.089844 14.742187 35.597656 9.507813 9.507813 22.152344 14.742188 35.597656 14.742188 13.445313 0 26.089844-5.234375 35.597657-14.742188 9.507812-9.507812 14.742187-22.152343 14.742187-35.597656 0-13.445312-5.234375-26.085937-14.742187-35.59375-9.511719-9.507812-22.152344-14.746094-35.597657-14.746094zm21.453126 71.792969c-5.730469 5.734375-13.347657 8.890625-21.453126 8.890625-8.105468 0-15.726562-3.15625-21.457031-8.890625-5.730469-5.726562-8.886719-13.347656-8.886719-21.453125 0-8.105468 3.15625-15.726562 8.886719-21.457031s13.351563-8.886719 21.457031-8.886719c8.105469 0 15.722657 3.15625 21.453126 8.886719 5.730468 5.730469 8.886718 13.351563 8.886718 21.457031 0 8.105469-3.15625 15.722656-8.886718 21.453125zm0 0" data-original="#000000" class="active-path" data-old_color="#000000" fill="#2A4B8B"/><path d="m502.910156 77.414062-.941406-1.632812c-11.136719-19.285156-14.65625-41.894531-9.917969-63.652344.839844-3.867187-.675781-7.871094-3.871093-10.203125-3.199219-2.335937-7.46875-2.5625-10.898438-.585937l-58.996094 34.0625c-29.710937-17.5625-61.988281-28.753906-95.988281-33.234375-5.472656-.71875-10.5 3.132812-11.21875 8.609375-.722656 5.476562 3.132813 10.496094 8.605469 11.21875 28.34375 3.734375 55.394531 12.527344 80.574218 26.164062-11.433593 10.671875-19.195312 24.332032-22.757812 39.042969-34.355469-18.277344-72.707031-25.398437-111.585938-20.605469-4.101562.507813-8.042968-1.742187-9.570312-5.464844-5.417969-13.214843-19.433594-20.457031-33.351562-17.21875l-11.378907 2.648438c-2.679687.625-5.433593-.542969-6.855469-2.902344-1.339843-2.230468-.917968-4.332031-.546874-5.390625.367187-1.039062 1.34375-2.917969 3.742187-3.800781 14.535156-5.34375 29.667969-9.265625 44.972656-11.652344 5.457031-.855468 9.1875-5.96875 8.335938-11.421875-.851563-5.460937-5.980469-9.191406-11.421875-8.339843-16.601563 2.59375-33.015625 6.847656-48.789063 12.644531-7.367187 2.707031-13.089843 8.515625-15.703125 15.929687-2.617187 7.4375-1.789062 15.578125 2.273438 22.335938 5.902344 9.820312 17.367187 14.671875 28.527344 12.074218l11.375-2.648437c4.308593-1 8.640624 1.238281 10.316406 5.328125 4.941406 12.042969 17.503906 19.332031 30.523437 17.726562 37.496094-4.625 74.453125 3.152344 106.96875 22.480469.488281 12.328125 3.863281 24.710938 10.449219 36.117188 2.484375 4.304687 5.40625 8.261719 8.679688 11.847656l-8.382813 31.277344c-3.660156-4.304688-7.480469-8.488281-11.460937-12.5-41.429688-41.796875-96.472657-64.898438-154.992188-65.058594-.203125 0-.398438 0-.605469 0-58.28125 0-113.203125 22.789063-154.703125 64.203125-41.445312 41.359375-64.285156 96.382812-64.316406 154.933594-.0273438 58.550781 22.753906 113.597656 64.152344 154.996094.425781.425781.851562.847656 1.285156 1.273437 17.1875 16.914063 39.605469 25.949219 62.859375 25.949219 7.820313 0 15.738281-1.023438 23.582031-3.109375 31.113282-8.292969 54.863282-31.738281 63.527344-62.722657 6.777344-24.238281 21.082031-44.976562 41.371094-59.976562 21.082031-15.59375 47.082031-23.347656 73.214844-21.828125 3.246093.1875 6.492187.203125 9.714843.054687-9.492187 45.070313-13.195312 91.101563-10.988281 137.242188.207031 4.34375 3.199219 8.054688 7.398438 9.179688.859374.230468 1.730468.339843 2.589843.339843 3.34375 0 6.539063-1.679687 8.410157-4.589843 30.296874-47.125 53.007812-98.457032 67.507812-152.566407l30.445312-113.625 17.117188-63.882812c5.519531-1.519531 10.882812-3.75 15.972656-6.6875 15.644532-9.03125 26.832032-23.613281 31.507813-41.0625 4.671875-17.449219 2.273437-35.671875-6.757813-51.316407zm-78.324218-22.558593 45.4375-26.234375c-.378907 16.15625 2.835937 32.207031 9.464843 47.046875-13.5625-.199219-29.722656 4.03125-43.214843 18.574219-12.699219 13.6875-30.234376 8.476562-40.460938 3.519531 2.386719-17.359375 12.457031-33.488281 28.773438-42.90625zm3.757812 170.671875-29.457031-7.894532 1.25-4.65625c.011719-.050781.027343-.101562.039062-.148437l11.371094-42.4375c4.769531 2.636719 9.894531 4.710937 15.296875 6.15625 4.640625 1.246094 9.335938 1.976563 14.027344 2.230469zm-97.195312 118.835937c-30.785157-1.777343-61.421876 7.34375-86.261719 25.710938-23.898438 17.671875-40.75 42.109375-48.738281 70.671875-6.738282 24.097656-25.210938 42.335937-49.417969 48.785156-24.246094 6.460938-49.394531-.183594-67.265625-17.769531-.390625-.382813-.777344-.769531-1.167969-1.160157-37.621094-37.617187-58.328125-87.640624-58.300781-140.84375.027344-53.207031 20.785156-103.207031 58.445312-140.792968 37.726563-37.644532 87.628906-58.359375 140.582032-58.359375h.550781c53.164062.144531 103.183593 21.144531 140.84375 59.136719 6.953125 7.015624 13.402343 14.5625 19.214843 22.476562l-2.648437 9.898438-30.449219 113.625c-.726562 2.722656-1.421875 5.453124-2.105468 8.183593-4.355469.546875-8.808594.695313-13.28125.4375zm64.160156 4.449219c-10.945313 40.84375-26.746094 80.042969-47.117188 116.933594.804688-42.132813 6.71875-83.984375 17.660156-124.828125l27.859376-103.96875 29.457031 7.894531zm95.042968-225.257812c-3.292968 12.289062-11.175781 22.558593-22.191406 28.917968-11.019531 6.359375-23.851562 8.050782-36.140625 4.757813-12.289062-3.292969-22.558593-11.171875-28.921875-22.191407-2.832031-4.910156-4.859375-10.066406-6.148437-15.316406 6.070312 1.953125 12.6875 3.238282 19.445312 3.238282 11.886719 0 24.179688-3.949219 34.539063-15.117188 14.246094-15.359375 31.53125-12.714844 38.945312-10.589844 2.621094 8.472656 2.824219 17.523438.472656 26.300782zm0 0" data-original="#000000" class="active-path" data-old_color="#000000" fill="#2A4B8B"/><path d="m287.746094 19.996094c2.628906 0 5.210937-1.066406 7.070312-2.929688 1.859375-1.859375 2.925782-4.4375 2.925782-7.066406s-1.066407-5.210938-2.925782-7.070312c-1.859375-1.859376-4.441406-2.929688-7.070312-2.929688s-5.210938 1.070312-7.070313 2.929688c-1.859375 1.859374-2.929687 4.441406-2.929687 7.070312s1.070312 5.207031 2.929687 7.066406c1.859375 1.863282 4.441407 2.929688 7.070313 2.929688zm0 0" data-original="#000000" class="active-path" data-old_color="#000000" fill="#2A4B8B"/></g> </svg>
